<svg id="object" xmlns="http://www.w3.org/2000/svg" viewBox="0 0 473.12 154.84"><defs><style>.cls-1{fill:#fff;}.cls-2{fill:#ff9700;}.cls-3{fill:#f77703;}</style></defs><rect class="cls-1" width="473.12" height="154.84"/><path class="cls-1" d="M127.07,56.07c-.11-.08-.1-.08,0,0S127.17,56.13,127.07,56.07Z"/><path class="cls-2" d="M150.41,77.42a56.63,56.63,0,1,0-99.7,36.74C58.51,92.46,74,62.68,91.34,48.84a5.09,5.09,0,0,1-.64-2.46,5.18,5.18,0,0,1,9.41-3c5.52-2.44,11.12-3,16.62-.85,5.51,2.31,7,9.44,8.11,11.47a10.48,10.48,0,0,0,2.21,2c.25.13,1.23.71,1.63.94s.53.29.77.44a1.11,1.11,0,0,0,1.13,1.65c0,.1,0,.2,0,.3s0,.46,0,.68a3.47,3.47,0,0,1-.18,1,3.36,3.36,0,0,1-1.67,1.46l-.14.07c-2.08,1.1-34.4,9-17.91,29.76,4.7,5.9,15.55,15.73,18.13,29.39l0,.12A56.5,56.5,0,0,0,150.41,77.42Z"/><path class="cls-3" d="M127.07,56.07c.1.06.07,0,0,0S127,56,127.07,56.07Z"/><path class="cls-1" d="M110.69,92.36C94.2,71.63,126.52,63.7,128.6,62.6l.14-.07a3.36,3.36,0,0,0,1.67-1.46,3.47,3.47,0,0,0,.18-1c0-.22,0-.45,0-.68s0-.2,0-.3a1.11,1.11,0,0,1-1.13-1.65c-.24-.15-.49-.29-.77-.44s-1.38-.81-1.63-.94c.09.07.12.09,0,0s-.1-.08,0,0a10.48,10.48,0,0,1-2.21-2c-1.16-2-2.6-9.16-8.11-11.47-5.5-2.13-11.1-1.59-16.62.85a5.18,5.18,0,0,0-9.41,3,5.09,5.09,0,0,0,.64,2.46C74,62.68,58.51,92.46,50.71,114.16a56.58,56.58,0,0,0,78.14,7.71l0-.12C126.24,108.09,115.39,98.26,110.69,92.36Z"/><path d="M129.48,58.58a1.1,1.1,0,0,1,0-1.16,4.47,4.47,0,0,1,.59.41,1.84,1.84,0,0,1,.54,1.24A1.1,1.1,0,0,1,129.48,58.58Z"/><polygon class="cls-1" points="71.83 103.9 71.83 103.9 71.83 103.9 71.83 103.9"/><path class="cls-1" d="M72.05,103.58h0l-.23.32Z"/><path class="cls-2" d="M95.58,88.61H81.52a2.46,2.46,0,0,0-2.47,2.47v26.27a2.46,2.46,0,0,0,2.47,2.47H95.58a2.47,2.47,0,0,0,2.48-2.47V91.08A2.47,2.47,0,0,0,95.58,88.61ZM95.09,92a.81.81,0,1,1,.8-.81A.81.81,0,0,1,95.09,92Z"/><path class="cls-1" d="M69,108.83h0l.23-.31C73.86,102,81,99.2,85.34,102.18s4.26,10.67-.13,17.3l-.21.32c-2.09,3-3.7,5.31-6.38,6.6l-14-8.94C64.88,114.5,66.93,111.87,69,108.83Z"/><ellipse cx="117.2" cy="52.73" rx="1.12" ry="0.63"/><path class="cls-2" d="M213.53,65.13,170.79,63V46.39l42.74,2.12ZM231.75,74V94.84a209.77,209.77,0,0,1-27.21,8.54,295.57,295.57,0,0,1-33.75,5.07V87.53a243.83,243.83,0,0,0,29.32-4l-29.32-1.41V65.45l42.74,2.12V80.08S224.05,77,231.75,74Z"/><path class="cls-2" d="M370.59,48.51c-3.15,26.57-4,32.86-4,32.86-.77,6.35-3.85,24.51-5,26.5H337.28c1.16-2.5,4.17-19.83,5.14-26.89.25-1.41.7-5.07,1.21-9.43h-8.92L332.21,93H309.43l5.13-44.47Z"/><path class="cls-2" d="M436,48.51v21c0,7-1.8,17.72-11.1,23.62-4,2.57-9.82,3.72-15.21,4.17l2.82,10.59h-24l-9.76-36.58h24l2.12,7.89a11.75,11.75,0,0,0,6.68-2.43c1.86-1.54,2.56-4.37,2.63-8H376.6V48.51Z"/><path class="cls-2" d="M295.26,48.87H244.7a3.6,3.6,0,0,0-3.6,3.6V103a3.6,3.6,0,0,0,3.6,3.6h50.56a3.6,3.6,0,0,0,3.6-3.6V52.47A3.6,3.6,0,0,0,295.26,48.87ZM281.28,92A1.94,1.94,0,0,1,279.34,94H260.62A1.94,1.94,0,0,1,258.68,92V66.37a1.94,1.94,0,0,1,1.94-1.94h18.72a1.94,1.94,0,0,1,1.94,1.94Z"/></svg>